<svg width="256" height="256" viewBox="0 0 256 256" fill="none" xmlns="http://www.w3.org/2000/svg">
<circle cx="128" cy="128" r="120" fill="url(#paint0_linear_45896_10996)" fill-opacity="0.12"></circle>
<mask id="mask0_45896_10996" style="mask-type:luminance" maskUnits="userSpaceOnUse" x="8" y="8" width="240" height="240">
<circle cx="128" cy="128" r="120" fill="#F1F2FB"></circle>
</mask>
<g mask="url(#mask0_45896_10996)">
<path d="M120.668 133.499C136.774 133.499 149.831 120.442 149.831 104.336C149.831 88.2292 136.774 75.1724 120.668 75.1724C104.561 75.1724 91.5044 88.2292 91.5044 104.336C91.5044 120.442 104.561 133.499 120.668 133.499Z" fill="#E6EDFF"></path>
<path d="M157.929 71.2643C163.801 71.2643 168.561 66.5041 168.561 60.6321C168.561 54.7602 163.801 50 157.929 50C152.057 50 147.296 54.7602 147.296 60.6321C147.296 66.5041 152.057 71.2643 157.929 71.2643Z" fill="#E6EDFF"></path>
<path d="M215.733 262.901H39.2666C37.5696 262.901 36.6938 261.371 37.303 259.506L44.9434 236.122C45.4473 234.58 47.0815 233.343 48.599 233.343H206.401C207.918 233.343 209.552 234.58 210.056 236.122L217.697 259.506C218.306 261.371 217.43 262.901 215.733 262.901Z" fill="#E6EDFF"></path>
<path d="M202.71 122.171H52.2895L32.6821 161.386H222.317L202.71 122.171Z" fill="#435E6D"></path>
<path opacity="0.7" d="M52.2895 122.171V161.386H32.6821L52.2895 122.171Z" fill="#2D4651"></path>
<path opacity="0.7" d="M202.71 122.171V161.386H222.318L202.71 122.171Z" fill="#2D4651"></path>
<path d="M220.085 251.405H34.9151C31.096 251.405 28 248.309 28 244.49V165.49C28 161.671 31.096 158.575 34.9151 158.575H220.085C223.904 158.575 227 161.671 227 165.49V244.49C227 248.309 223.904 251.405 220.085 251.405Z" fill="#6FA0FF"></path>
<path opacity="0.3" d="M166.982 219.525H94.9905C92.858 219.525 90.8179 217.423 90.4339 214.831L88.3128 200.514C87.9287 197.922 89.3462 195.821 91.4787 195.821C93.6113 195.821 95.6514 197.922 96.0354 200.514L97.4612 210.138H161.73L160.304 200.514C159.92 197.922 161.337 195.821 163.47 195.821C165.602 195.821 167.643 197.922 168.027 200.514L170.148 214.831C170.532 217.423 169.114 219.525 166.982 219.525Z" fill="#2A65BA"></path>
<path d="M163.496 214.74H91.5044C89.3718 214.74 87.6431 213.012 87.6431 210.879V199.1C87.6431 196.968 89.3718 195.239 91.5044 195.239C93.637 195.239 95.3658 196.968 95.3658 199.1V207.018H159.634V199.1C159.634 196.968 161.363 195.239 163.496 195.239C165.628 195.239 167.357 196.968 167.357 199.1V210.879C167.357 213.012 165.628 214.74 163.496 214.74Z" fill="white"></path>
<path d="M203.771 85.669L203.587 85.714C202.384 86.0074 201.16 85.2634 200.866 84.0605L197.485 70.202C197.192 68.9991 197.936 67.7749 199.139 67.4815L199.323 67.4365C200.526 67.1431 201.75 67.8871 202.044 69.09L205.424 82.9485C205.718 84.1514 204.974 85.3756 203.771 85.669Z" fill="#508BEA"></path>
<path d="M80.5947 145.38C80.349 145.38 80.1074 145.263 79.9575 145.045C79.7159 144.693 79.805 144.213 80.1565 143.971C81.407 143.111 82.6509 142.199 83.8539 141.259C84.19 140.996 84.6752 141.055 84.9379 141.391C85.2005 141.727 85.141 142.213 84.805 142.475C83.5775 143.435 82.3079 144.366 81.0315 145.244C80.8979 145.336 80.7455 145.38 80.5947 145.38ZM87.8923 139.678C87.6786 139.678 87.4659 139.59 87.3133 139.417C87.0309 139.097 87.0612 138.609 87.3809 138.327C88.519 137.321 89.6448 136.266 90.7273 135.189C91.0297 134.889 91.5186 134.89 91.8194 135.192C92.1201 135.495 92.1188 135.984 91.8164 136.284C90.7124 137.382 89.5641 138.459 88.4033 139.484C88.2564 139.614 88.074 139.678 87.8923 139.678ZM94.4589 133.147C94.2757 133.147 94.0918 133.082 93.9445 132.95C93.6266 132.666 93.5993 132.178 93.8836 131.86C94.8978 130.726 95.8929 129.545 96.841 128.352C97.1064 128.019 97.5922 127.963 97.9261 128.228C98.26 128.494 98.3156 128.979 98.0502 129.313C97.0836 130.53 96.0691 131.733 95.0349 132.89C94.8824 133.06 94.6711 133.147 94.4589 133.147ZM100.222 125.897C100.068 125.897 99.9127 125.851 99.7774 125.756C99.4288 125.51 99.3453 125.028 99.591 124.679C100.468 123.435 101.321 122.148 102.125 120.854C102.35 120.492 102.826 120.381 103.188 120.606C103.551 120.831 103.662 121.307 103.436 121.669C102.617 122.988 101.748 124.3 100.854 125.569C100.703 125.783 100.464 125.897 100.222 125.897ZM105.111 118.03C104.987 118.03 104.86 118 104.743 117.936C104.368 117.732 104.23 117.263 104.434 116.889C105.163 115.549 105.861 114.173 106.509 112.797C106.691 112.411 107.151 112.246 107.537 112.427C107.923 112.609 108.088 113.069 107.906 113.455C107.245 114.858 106.533 116.261 105.79 117.627C105.65 117.884 105.385 118.03 105.111 118.03ZM109.059 109.652C108.963 109.652 108.866 109.634 108.771 109.596C108.375 109.437 108.183 108.987 108.342 108.591C108.91 107.176 109.443 105.727 109.924 104.286C110.059 103.881 110.496 103.663 110.901 103.798C111.306 103.933 111.524 104.37 111.389 104.775C110.898 106.245 110.355 107.723 109.776 109.167C109.655 109.468 109.365 109.652 109.059 109.652ZM136.787 101.889C136.366 101.889 136.021 101.551 136.015 101.129C136.008 100.702 136.349 100.351 136.775 100.345C138.301 100.322 139.849 100.268 141.376 100.186C141.8 100.162 142.165 100.489 142.189 100.915C142.212 101.341 141.885 101.705 141.459 101.728C139.913 101.811 138.345 101.866 136.799 101.889C136.795 101.889 136.791 101.889 136.787 101.889ZM132.154 101.869C132.148 101.869 132.142 101.869 132.135 101.869C130.587 101.832 129.019 101.764 127.476 101.667C127.05 101.64 126.727 101.273 126.754 100.848C126.781 100.422 127.147 100.099 127.573 100.126C129.096 100.222 130.644 100.289 132.172 100.325C132.598 100.335 132.936 100.689 132.926 101.115C132.916 101.536 132.572 101.869 132.154 101.869ZM146.037 101.39C145.643 101.39 145.306 101.089 145.269 100.689C145.23 100.264 145.542 99.8879 145.967 99.8484C147.487 99.7073 149.026 99.5343 150.542 99.3343C150.965 99.278 151.352 99.5761 151.408 99.999C151.464 100.422 151.167 100.81 150.744 100.866C149.209 101.068 147.65 101.243 146.11 101.386C146.085 101.389 146.061 101.39 146.037 101.39ZM122.908 101.286C122.882 101.286 122.855 101.284 122.828 101.282C121.287 101.123 119.729 100.932 118.199 100.712C117.777 100.652 117.484 100.26 117.544 99.8382C117.605 99.4161 117.996 99.1231 118.418 99.1833C119.928 99.3998 121.465 99.5888 122.987 99.7453C123.411 99.7889 123.719 100.168 123.676 100.592C123.635 100.99 123.299 101.286 122.908 101.286ZM111.991 100.867C111.925 100.867 111.858 100.858 111.791 100.84C111.379 100.73 111.135 100.306 111.245 99.8941C111.279 99.7691 111.312 99.6439 111.345 99.5185C110.568 99.3589 109.794 99.1914 109.027 99.0172C108.611 98.9227 108.351 98.509 108.445 98.0931C108.54 97.6772 108.954 97.4167 109.37 97.5111C110.147 97.6878 110.934 97.8576 111.722 98.0191C111.862 97.4376 111.995 96.8554 112.12 96.2759C112.18 95.995 112.239 95.7134 112.297 95.4313C112.381 95.0132 112.789 94.7432 113.207 94.8281C113.625 94.913 113.895 95.3206 113.81 95.7386C113.752 96.0268 113.691 96.3145 113.63 96.6015C113.506 97.1725 113.376 97.7461 113.238 98.3192C113.451 98.3598 113.664 98.3998 113.877 98.439C114.296 98.5165 114.573 98.9193 114.496 99.3387C114.418 99.7581 114.016 100.035 113.596 99.9578C113.352 99.9127 113.107 99.8666 112.862 99.8198C112.821 99.9782 112.779 100.136 112.737 100.294C112.644 100.639 112.332 100.867 111.991 100.867ZM155.223 100.178C154.853 100.178 154.527 99.912 154.462 99.5358C154.39 99.1154 154.673 98.7162 155.093 98.6441C156.599 98.3858 158.121 98.0945 159.614 97.7785C160.032 97.6906 160.442 97.957 160.53 98.3741C160.618 98.7914 160.351 99.2013 159.934 99.2895C158.421 99.6096 156.88 99.9046 155.354 100.166C155.31 100.174 155.266 100.178 155.223 100.178ZM164.287 98.2596C163.942 98.2596 163.627 98.0262 163.539 97.6762C163.435 97.2626 163.685 96.8428 164.099 96.7384C165.581 96.364 167.075 95.9555 168.539 95.5245C168.948 95.4039 169.377 95.638 169.498 96.0472C169.618 96.4563 169.384 96.8856 168.975 97.0061C167.492 97.4429 165.979 97.8566 164.477 98.236C164.413 98.2519 164.35 98.2596 164.287 98.2596ZM104.703 97.9171C104.636 97.9171 104.568 97.9084 104.5 97.89C103.003 97.4841 101.496 97.0418 100.024 96.5758C99.6172 96.4471 99.3918 96.0132 99.5205 95.6065C99.6492 95.1999 100.083 94.9748 100.49 95.1033C101.942 95.5628 103.427 95.9989 104.904 96.3993C105.316 96.5109 105.559 96.9351 105.448 97.3467C105.355 97.6907 105.043 97.9171 104.703 97.9171ZM173.175 95.6417C172.853 95.6417 172.552 95.4386 172.443 95.1163C172.307 94.7123 172.524 94.274 172.928 94.1375C174.378 93.6477 175.835 93.1231 177.258 92.5784C177.657 92.4259 178.103 92.6253 178.256 93.0237C178.408 93.422 178.209 93.8685 177.81 94.0209C176.368 94.5729 174.892 95.1044 173.422 95.6007C173.34 95.6285 173.257 95.6417 173.175 95.6417ZM95.8738 95.1091C95.7839 95.1091 95.6924 95.0932 95.6033 95.0599C94.0395 94.4747 92.6224 93.8853 91.2711 93.2581C90.8842 93.0785 90.7161 92.6193 90.8956 92.2325C91.0751 91.8456 91.5343 91.6777 91.9212 91.857C93.2366 92.4676 94.618 93.042 96.1445 93.6134C96.544 93.7628 96.7466 94.2079 96.5971 94.6073C96.481 94.9175 96.1866 95.1091 95.8738 95.1091ZM181.828 92.3303C181.529 92.3303 181.244 92.155 181.118 91.8625C180.95 91.4706 181.131 91.0165 181.523 90.8482C182.928 90.245 184.339 89.6055 185.714 88.9478C186.099 88.764 186.56 88.9267 186.744 89.3114C186.928 89.6962 186.765 90.1573 186.381 90.3412C184.986 91.008 183.557 91.6561 182.133 92.2676C182.033 92.3101 181.93 92.3303 181.828 92.3303ZM113.819 91.7881C113.786 91.7881 113.752 91.7859 113.718 91.7815C113.295 91.7267 112.997 91.3393 113.052 90.9164C113.253 89.3664 113.387 87.836 113.451 86.3677C113.469 85.9416 113.828 85.6114 114.256 85.6297C114.682 85.6481 115.012 86.0085 114.994 86.4347C114.928 87.9468 114.79 89.5216 114.584 91.1151C114.533 91.5043 114.201 91.7881 113.819 91.7881ZM87.4969 91.1734C87.362 91.1734 87.2253 91.1381 87.1011 91.0637C85.6985 90.2243 84.388 89.3188 83.2062 88.3721C82.8733 88.1055 82.8196 87.6194 83.0864 87.2865C83.353 86.9536 83.8392 86.9001 84.172 87.1667C85.2991 88.0697 86.5515 88.9349 87.8942 89.7384C88.2602 89.9575 88.3794 90.4316 88.1604 90.7977C88.0157 91.0394 87.7596 91.1734 87.4969 91.1734ZM190.186 88.3332C189.909 88.3332 189.642 88.1839 189.503 87.9222C189.303 87.5453 189.447 87.078 189.824 86.8783C191.176 86.1623 192.529 85.4097 193.845 84.6415C194.213 84.4264 194.686 84.5506 194.901 84.919C195.116 85.2873 194.992 85.7602 194.624 85.9752C193.29 86.7542 191.918 87.5172 190.547 88.2432C190.432 88.3043 190.308 88.3332 190.186 88.3332ZM80.3232 85.3664C80.1106 85.3664 79.899 85.2791 79.7463 85.1081C78.6916 83.9247 77.7515 82.6172 76.9523 81.2221C76.7402 80.8521 76.8685 80.3802 77.2386 80.1682C77.6088 79.9562 78.0806 80.0844 78.2925 80.4545C79.0386 81.7568 79.9157 82.9767 80.8993 84.0804C81.1831 84.3988 81.1551 84.887 80.8367 85.1707C80.6895 85.3019 80.5059 85.3664 80.3232 85.3664ZM114.192 82.5419C113.786 82.5419 113.446 82.2254 113.422 81.8152C113.331 80.2703 113.152 78.7542 112.889 77.3089C112.813 76.8892 113.092 76.4873 113.511 76.4111C113.931 76.3354 114.333 76.6136 114.409 77.0332C114.682 78.5393 114.869 80.1177 114.964 81.7242C114.989 82.1499 114.664 82.5154 114.238 82.5406C114.223 82.5415 114.208 82.5419 114.192 82.5419ZM75.7532 77.3799C75.4261 77.3799 75.1224 77.1704 75.0177 76.8423C74.5164 75.2723 74.2065 73.6852 74.0967 72.1249C74.0667 71.6995 74.3873 71.3302 74.8128 71.3003C75.2394 71.2687 75.6074 71.591 75.6374 72.0164C75.7386 73.454 76.0252 74.9196 76.4891 76.3724C76.6189 76.7787 76.3946 77.2133 75.9883 77.343C75.9101 77.368 75.831 77.3799 75.7532 77.3799ZM112.517 73.4544C112.192 73.4544 111.89 73.2483 111.783 72.9232C111.316 71.502 110.728 70.1052 110.035 68.7719C109.838 68.3934 109.986 67.9272 110.364 67.7305C110.743 67.534 111.209 67.6812 111.406 68.0597C112.137 69.4666 112.757 70.9406 113.251 72.4407C113.384 72.8458 113.163 73.2823 112.758 73.4155C112.678 73.4419 112.597 73.4544 112.517 73.4544ZM75.1812 68.2364C75.1267 68.2364 75.0716 68.2305 75.0161 68.2185C74.5995 68.1278 74.3351 67.7164 74.4258 67.2996C74.6744 66.1572 75.0496 65.0517 75.5408 64.0139C75.7401 63.5926 75.9631 63.1753 76.2036 62.7737C76.4228 62.4078 76.8971 62.2889 77.2629 62.5078C77.6288 62.7269 77.7479 63.2012 77.5288 63.5672C77.3139 63.926 77.1147 64.2986 76.9368 64.6747C76.4957 65.6065 76.1586 66.6003 75.9349 67.6282C75.8564 67.9896 75.5366 68.2364 75.1812 68.2364ZM108.258 65.2689C108.024 65.2689 107.792 65.1625 107.64 64.9604C106.726 63.7432 105.716 62.6199 104.639 61.6216C104.326 61.3317 104.307 60.843 104.597 60.5302C104.887 60.2175 105.376 60.1988 105.689 60.4887C106.833 61.5495 107.905 62.7418 108.875 64.0326C109.131 64.3735 109.063 64.8576 108.722 65.1139C108.583 65.2184 108.42 65.2689 108.258 65.2689ZM79.8468 60.4217C79.6301 60.4217 79.4146 60.331 79.2619 60.1541C78.9832 59.8312 79.0189 59.3436 79.3417 59.0649C80.5391 58.031 81.907 57.1527 83.4075 56.4543C83.7942 56.2742 84.2536 56.442 84.4334 56.8286C84.6135 57.2153 84.4458 57.6747 84.0591 57.8546C82.6879 58.4927 81.4404 59.2932 80.351 60.2339C80.2052 60.3599 80.0255 60.4217 79.8468 60.4217ZM101.477 59.0334C101.34 59.0334 101.202 58.9972 101.077 58.9211C99.7861 58.1373 98.4287 57.507 97.042 57.0477C96.6371 56.9136 96.4176 56.4767 96.5517 56.0719C96.6857 55.667 97.1228 55.4475 97.5276 55.5815C99.0246 56.0773 100.488 56.7567 101.878 57.6009C102.243 57.8223 102.359 58.2973 102.138 58.6618C101.992 58.9011 101.738 59.0334 101.477 59.0334ZM88.1342 56.5169C87.7705 56.5169 87.4464 56.2587 87.3763 55.8881C87.297 55.4691 87.5724 55.065 87.9914 54.9857C89.5764 54.6857 91.2086 54.5802 92.7929 54.6735C93.2187 54.6986 93.5435 55.0641 93.5184 55.4898C93.4933 55.9157 93.1266 56.2397 92.7021 56.2154C91.2438 56.1297 89.7397 56.2268 88.2787 56.5033C88.2302 56.5125 88.1819 56.5169 88.1342 56.5169Z" fill="#2D4651"></path>
<path d="M192.316 78.7074L192.361 78.8915C192.655 80.0944 193.879 80.8384 195.082 80.545L208.94 77.1641C210.143 76.8707 210.887 75.6465 210.594 74.4436L210.549 74.2594C210.256 73.0566 209.031 72.3125 207.828 72.606L193.97 75.9868C192.767 76.2803 192.023 77.5046 192.316 78.7074Z" fill="#6FA0FF"></path>
<path d="M159.176 141.629C160.19 141.301 160.46 139.327 159.779 137.22C159.097 135.114 157.722 133.672 156.708 134C155.694 134.328 155.424 136.302 156.105 138.408C156.787 140.515 158.162 141.957 159.176 141.629Z" fill="#508BEA"></path>
<path d="M162.499 140.661C164.35 139.447 165.377 137.74 164.792 136.848C164.207 135.957 162.233 136.219 160.381 137.433C158.53 138.647 157.503 140.354 158.088 141.246C158.673 142.137 160.647 141.875 162.499 140.661Z" fill="#6FA0FF"></path>
<path d="M84.8278 108.317C84.9261 107.255 83.2187 106.23 81.0143 106.025C78.8099 105.821 76.9432 106.516 76.845 107.578C76.7467 108.639 78.454 109.665 80.6584 109.869C82.8628 110.073 84.7295 109.378 84.8278 108.317Z" fill="#508BEA"></path>
<path d="M84.0566 109.17C85.1063 108.984 85.6443 107.066 85.2581 104.886C84.872 102.706 83.7081 101.09 82.6584 101.276C81.6087 101.462 81.0708 103.38 81.4569 105.56C81.843 107.74 83.007 109.356 84.0566 109.17Z" fill="#6FA0FF"></path>
</g>
<defs>
<linearGradient id="paint0_linear_45896_10996" x1="128" y1="8" x2="128" y2="322" gradientUnits="userSpaceOnUse">
<stop stop-color="#C182FF"></stop>
<stop offset="1" stop-color="#0085F2" stop-opacity="0"></stop>
</linearGradient>
</defs>
</svg>